<svg width="20" height="20" viewBox="0 0 20 20" fill="none" xmlns="http://www.w3.org/2000/svg">
<path d="M16.5 17.4863L11.0973 12.0836C10.6806 12.4354 10.197 12.7109 9.64646 12.9101C9.0959 13.1091 8.51007 13.2086 7.88896 13.2086C6.38285 13.2086 5.10813 12.6866 4.06479 11.6426C3.0216 10.5987 2.5 9.33369 2.5 7.84758C2.5 6.36147 3.02201 5.0964 4.06604 4.05237C5.10993 3.00834 6.37729 2.48633 7.86813 2.48633C9.35882 2.48633 10.6238 3.00834 11.6631 4.05237C12.7026 5.0964 13.2223 6.36216 13.2223 7.84966C13.2223 8.45008 13.1251 9.02577 12.9306 9.57675C12.7362 10.1276 12.4538 10.6345 12.0833 11.0976L17.5 16.4863L16.5 17.4863ZM7.875 11.8197C8.97458 11.8197 9.90917 11.432 10.6788 10.6565C11.4485 9.88112 11.8333 8.9448 11.8333 7.84758C11.8333 6.75036 11.4485 5.81397 10.6788 5.03841C9.90917 4.26299 8.97458 3.87529 7.875 3.87529C6.76778 3.87529 5.8266 4.26299 5.05146 5.03841C4.27646 5.81397 3.88896 6.75036 3.88896 7.84758C3.88896 8.9448 4.27646 9.88112 5.05146 10.6565C5.8266 11.432 6.76778 11.8197 7.875 11.8197Z" fill="#FAFAFA"/>
</svg>
